<?xml version="1.0" encoding="UTF-8" standalone="no"?>
<!-- Created with Inkscape (http://www.inkscape.org/) -->

<svg
   width="210mm"
   height="210mm"
   viewBox="0 0 210 210"
   version="1.1"
   id="svg1"
   xml:space="preserve"
   sodipodi:docname="CTI_lv_persona.svg"
   inkscape:version="1.3.2 (091e20e, 2023-11-25, custom)"
   xmlns:inkscape="http://www.inkscape.org/namespaces/inkscape"
   xmlns:sodipodi="http://sodipodi.sourceforge.net/DTD/sodipodi-0.dtd"
   xmlns="http://www.w3.org/2000/svg"
   xmlns:svg="http://www.w3.org/2000/svg"
   xmlns:rdf="http://www.w3.org/1999/02/22-rdf-syntax-ns#"
   xmlns:cc="http://creativecommons.org/ns#"><sodipodi:namedview
     id="namedview1"
     pagecolor="#ffffff"
     bordercolor="#000000"
     borderopacity="0.25"
     inkscape:showpageshadow="2"
     inkscape:pageopacity="0.0"
     inkscape:pagecheckerboard="0"
     inkscape:deskcolor="#d1d1d1"
     inkscape:document-units="mm"
     inkscape:zoom="0.70710678"
     inkscape:cx="379.00924"
     inkscape:cy="283.54982"
     inkscape:window-width="1920"
     inkscape:window-height="1009"
     inkscape:window-x="-8"
     inkscape:window-y="-8"
     inkscape:window-maximized="1"
     inkscape:current-layer="layer1" /><defs
     id="defs1" /><g
     inkscape:label="Layer 1"
     inkscape:groupmode="layer"
     id="layer1"
     style="display:inline"><circle
       style="opacity:1;fill:#ffffff;stroke-width:0.288104;stroke-linecap:round;stroke-linejoin:round;paint-order:markers stroke fill;fill-opacity:1"
       id="path1"
       cx="105"
       cy="105"
       r="95.25" /></g><g
     inkscape:groupmode="layer"
     id="layer9"
     inkscape:label="Layer 6"
     style="fill:#ffffff;fill-opacity:1"><g
       id="g868"
       inkscape:export-filename="CTI_lv_persona.png"
       inkscape:export-xdpi="96"
       inkscape:export-ydpi="96"
       transform="matrix(2.1191659,0,0,2.1191659,-14.657633,-217.67233)"><path
         d="m 30.582629,178.67023 a 26.032881,26.411518 0 0 0 2.035018,8.94157 42.34581,42.8918 0 0 0 23.847124,7.54373 42.34581,42.8918 0 0 0 23.847123,-7.54424 26.032881,26.411518 0 0 0 2.038635,-8.98033 26.032881,26.411518 0 0 1 -1.281059,0.0444 26.032881,26.411518 0 0 1 -0.12454,-0.0124 35.773743,36.234997 0 0 1 -20.004464,9.54618 6.1439996,5.9868374 0 0 1 -4.475695,1.90325 6.1439996,5.9868374 0 0 1 -4.523239,-2.01435 35.773743,36.234997 0 0 1 -19.857185,-9.48004 26.032881,26.411518 0 0 1 -1.501718,0.0522 z"
         style="display:inline;fill:#ffd500;stroke:#ffffff;stroke-width:2.04318;stroke-linecap:round;stroke-linejoin:round"
         id="path848" /><path
         d="m 30.903023,127.10594 a 26.032881,26.411518 0 0 1 -0.118339,-1.21853 26.032881,26.411518 0 0 0 -0.35295,-0.0351 26.032881,26.411518 0 0 0 -8.43101,1.53944 42.34581,42.8918 0 0 0 -7.882206,24.87238 42.34581,42.8918 0 0 0 7.882206,24.87187 26.032881,26.411518 0 0 0 8.43101,1.53944 26.032881,26.411518 0 0 0 0.150895,-0.005 26.032881,26.411518 0 0 1 -0.150895,-1.55339 26.032881,26.411518 0 0 1 0.0155,-0.1571 35.773743,36.234997 0 0 1 -9.373071,-20.25664 6.1439996,5.9868374 0 0 1 -2.115117,-4.43901 6.1439996,5.9868374 0 0 1 2.115117,-4.439 35.773743,36.234997 0 0 1 9.828857,-20.71915 z"
         style="display:inline;fill:#ffd500;stroke:#ffffff;stroke-width:2.04318;stroke-linecap:round;stroke-linejoin:round"
         id="path842" /><path
         d="m 82.234257,125.96854 a 26.032881,26.411518 0 0 1 -0.195337,1.15032 35.773743,36.234997 0 0 1 9.830408,20.87572 6.1439996,5.9868374 0 0 1 1.855184,4.26951 6.1439996,5.9868374 0 0 1 -1.727027,4.14032 35.773743,36.234997 0 0 1 -9.501228,20.68917 26.032881,26.411518 0 0 1 0.001,0.0233 26.032881,26.411518 0 0 1 -0.146761,1.51412 26.032881,26.411518 0 0 0 8.930204,-2.07791 42.34581,42.8918 0 0 0 7.529773,-24.28896 42.34581,42.8918 0 0 0 -7.508585,-24.25433 26.032881,26.411518 0 0 0 -9.067664,-2.04122 z"
         style="display:inline;fill:#ffd500;stroke:#ffffff;stroke-width:2.04318;stroke-linecap:round;stroke-linejoin:round"
         id="path834" /><path
         d="m 82.105066,118.21294 a 42.34581,42.8918 0 0 0 -25.640295,-8.8408 42.34581,42.8918 0 0 0 -25.640813,8.8408 26.032881,26.411518 0 0 0 -0.392224,4.038 26.032881,26.411518 0 0 0 0.35295,3.63647 26.032881,26.411518 0 0 1 1.202511,0.1204 35.773743,36.234997 0 0 1 19.766235,-9.56117 6.1439996,5.9868374 0 0 1 4.711341,-2.28875 6.1439996,5.9868374 0 0 1 4.821411,2.29857 35.773743,36.234997 0 0 1 19.52749,9.42113 26.032881,26.411518 0 0 1 0.255798,-0.0253 26.032881,26.411518 0 0 1 1.164787,0.11627 26.032881,26.411518 0 0 0 0.263033,-3.7176 26.032881,26.411518 0 0 0 -0.392224,-4.038 z"
         style="display:inline;fill:#ffd500;stroke:#ffffff;stroke-width:2.04318;stroke-linecap:round;stroke-linejoin:round"
         id="path833" /><ellipse
         style="display:inline;fill:#ffd500;fill-opacity:1;stroke:#ffffff;stroke-width:2.04318;stroke-linecap:round;stroke-linejoin:round;stroke-dasharray:none;stroke-opacity:1;paint-order:normal"
         id="path748-0"
         cx="25.102861"
         cy="152.26398"
         rx="6.1439996"
         ry="5.9868374" /><ellipse
         style="display:inline;fill:#ffd500;fill-opacity:1;stroke:#ffffff;stroke-width:2.04318;stroke-linecap:round;stroke-linejoin:round;stroke-dasharray:none;stroke-opacity:1;paint-order:normal"
         id="ellipse865"
         cx="56.464771"
         cy="184.55205"
         rx="6.1439996"
         ry="5.9868374" /><ellipse
         style="display:inline;fill:#ffd500;fill-opacity:1;stroke:#ffffff;stroke-width:2.04318;stroke-linecap:round;stroke-linejoin:round;stroke-dasharray:none;stroke-opacity:1;paint-order:normal"
         id="ellipse866"
         cx="87.580513"
         cy="152.26408"
         rx="6.1439996"
         ry="5.9868374" /><ellipse
         style="display:inline;fill:#ffd500;fill-opacity:1;stroke:#ffffff;stroke-width:2.04318;stroke-linecap:round;stroke-linejoin:round;stroke-dasharray:none;stroke-opacity:1;paint-order:normal"
         id="ellipse867"
         cx="56.464771"
         cy="120.145"
         rx="6.1439996"
         ry="5.9868374" /><g
         id="g867"
         style="fill:#ffd500;fill-opacity:1"
         transform="matrix(0.43288487,0,0,0.43288487,28.296074,106.75427)"><path
           sodipodi:type="star"
           style="display:inline;fill:#ffd500;fill-opacity:1;stroke-width:15.1181"
           id="path2"
           inkscape:flatsided="true"
           sodipodi:sides="3"
           sodipodi:cx="203.81181"
           sodipodi:cy="74.597786"
           sodipodi:r1="57.887356"
           sodipodi:r2="28.94368"
           sodipodi:arg1="2.0873744"
           sodipodi:arg2="3.1345719"
           inkscape:rounded="0.15"
           inkscape:randomized="0"
           d="m 175.22081,124.93167 c -13.07713,-7.42816 -13.67546,-92.650322 -0.70392,-100.261366 12.97154,-7.611044 87.07527,34.48187 87.18085,49.521075 0.10559,15.039206 -73.39981,58.168461 -86.47693,50.740291 z"
           inkscape:transform-center-x="-26.759731"
           inkscape:transform-center-y="0.37477604"
           transform="matrix(0.49527317,0,0,0.48797627,-31.833286,68.839854)" /><ellipse
           style="fill:#ffd500;fill-opacity:1;stroke-width:4"
           id="path5"
           cx="56.240227"
           cy="114.94673"
           rx="15.684129"
           ry="15.272934" /><ellipse
           style="fill:#ffd500;fill-opacity:1;stroke-width:4"
           id="path5-0"
           cx="56.165379"
           cy="95.722244"
           rx="15.684129"
           ry="15.272934" /></g><path
         style="display:inline;fill:#ffffff;fill-opacity:1;stroke-width:0.165936"
         d="m 55.14322,155.83901 -0.04605,-2.3646 -2.364576,-0.0461 -2.364578,-0.0461 v -1.157 -1.15698 h 2.406064 2.406064 v -2.32306 -2.3231 h 1.161545 1.161545 v 2.3231 2.3231 h 2.406064 2.406064 v 1.15698 1.15701 l -2.364578,0.0461 -2.364576,0.0461 -0.04605,2.3646 -0.04605,2.36457 H 56.34166 55.189234 Z"
         id="path4-3" /></g></g><metadata
     id="metadata1"><rdf:RDF><cc:Work
         rdf:about=""><cc:license
           rdf:resource="http://creativecommons.org/licenses/by-nc/4.0/" /></cc:Work><cc:License
         rdf:about="http://creativecommons.org/licenses/by-nc/4.0/"><cc:permits
           rdf:resource="http://creativecommons.org/ns#Reproduction" /><cc:permits
           rdf:resource="http://creativecommons.org/ns#Distribution" /><cc:requires
           rdf:resource="http://creativecommons.org/ns#Notice" /><cc:requires
           rdf:resource="http://creativecommons.org/ns#Attribution" /><cc:prohibits
           rdf:resource="http://creativecommons.org/ns#CommercialUse" /><cc:permits
           rdf:resource="http://creativecommons.org/ns#DerivativeWorks" /></cc:License></rdf:RDF></metadata></svg>
