<?xml version="1.0" encoding="UTF-8" standalone="no"?>
<!-- Created with Inkscape (http://www.inkscape.org/) -->

<svg
   width="210mm"
   height="210mm"
   viewBox="0 0 210 210"
   version="1.1"
   id="svg1"
   xml:space="preserve"
   sodipodi:docname="CTI_lv_persona_nooutline.svg"
   inkscape:version="1.3.2 (091e20e, 2023-11-25, custom)"
   inkscape:export-filename="CTI_lv_persona_nooutline_yellow.png"
   inkscape:export-xdpi="96"
   inkscape:export-ydpi="96"
   xmlns:inkscape="http://www.inkscape.org/namespaces/inkscape"
   xmlns:sodipodi="http://sodipodi.sourceforge.net/DTD/sodipodi-0.dtd"
   xmlns="http://www.w3.org/2000/svg"
   xmlns:svg="http://www.w3.org/2000/svg"
   xmlns:rdf="http://www.w3.org/1999/02/22-rdf-syntax-ns#"
   xmlns:cc="http://creativecommons.org/ns#"><sodipodi:namedview
     id="namedview1"
     pagecolor="#ffffff"
     bordercolor="#000000"
     borderopacity="0.25"
     inkscape:showpageshadow="2"
     inkscape:pageopacity="0.0"
     inkscape:pagecheckerboard="0"
     inkscape:deskcolor="#d1d1d1"
     inkscape:document-units="mm"
     inkscape:zoom="0.5"
     inkscape:cx="730"
     inkscape:cy="695"
     inkscape:window-width="1920"
     inkscape:window-height="1009"
     inkscape:window-x="-8"
     inkscape:window-y="-8"
     inkscape:window-maximized="1"
     inkscape:current-layer="layer5" /><defs
     id="defs1" /><g
     inkscape:groupmode="layer"
     id="layer5"
     inkscape:label="Layer 7"
     style="display:none"><ellipse
       style="display:inline;fill:#ffffff;fill-opacity:1;stroke:none;stroke-width:7.61339;stroke-linecap:round;stroke-linejoin:round;stroke-dasharray:none;stroke-opacity:1;paint-order:normal"
       id="path698-3"
       cx="104.71051"
       cy="102.78764"
       rx="97.004929"
       ry="98.415825"
       inkscape:export-filename="CTI_lv_persona.png"
       inkscape:export-xdpi="96"
       inkscape:export-ydpi="96" /></g><g
     inkscape:groupmode="layer"
     id="layer9"
     inkscape:label="Layer 6"
     style="fill:#ffffff;fill-opacity:1"><g
       id="g867"
       style="fill:#ffd500;fill-opacity:1"
       transform="matrix(1.0800368,0,0,1.0800368,34.406748,-8.7717739)"><path
         sodipodi:type="star"
         style="display:inline;fill:#ffd500;fill-opacity:1;stroke-width:15.1181"
         id="path2"
         inkscape:flatsided="true"
         sodipodi:sides="3"
         sodipodi:cx="203.81181"
         sodipodi:cy="74.597786"
         sodipodi:r1="57.887356"
         sodipodi:r2="28.94368"
         sodipodi:arg1="2.0873744"
         sodipodi:arg2="3.1345719"
         inkscape:rounded="0.15"
         inkscape:randomized="0"
         d="m 175.22081,124.93167 c -13.07713,-7.42816 -13.67546,-92.650322 -0.70392,-100.261366 12.97154,-7.611044 87.07527,34.48187 87.18085,49.521075 0.10559,15.039206 -73.39981,58.168461 -86.47693,50.740291 z"
         inkscape:transform-center-x="-26.759731"
         inkscape:transform-center-y="0.37477604"
         transform="matrix(0.49527317,0,0,0.48797627,-31.833286,68.839854)" /><ellipse
         style="fill:#ffd500;fill-opacity:1;stroke-width:4"
         id="path5"
         cx="56.240227"
         cy="114.94673"
         rx="15.684129"
         ry="15.272934" /><ellipse
         style="fill:#ffd500;fill-opacity:1;stroke-width:4"
         id="path5-0"
         cx="56.165379"
         cy="95.722244"
         rx="15.684129"
         ry="15.272934" /></g><path
       style="display:inline;fill:#ffffff;fill-opacity:1;stroke-width:0.414006"
       d="m 101.38971,113.6934 -0.1149,-5.89961 -5.899561,-0.11494 -5.899562,-0.11494 v -2.88669 -2.88663 h 6.003069 6.003074 v -5.795991 -5.79608 h 2.89804 2.89801 v 5.79608 5.796091 h 6.00307 6.00308 v 2.88663 2.8867 l -5.89957,0.11496 -5.89956,0.11494 -0.11489,5.89962 -0.11489,5.89954 h -2.87533 -2.87529 z"
       id="path4-3" /></g><g
     inkscape:groupmode="layer"
     id="layer4"
     inkscape:label="Layer 8"
     style="display:inline"><path
       id="path13"
       style="color:#000000;fill:#ffd500;fill-opacity:1;stroke-width:2.49497;stroke-linecap:round;stroke-linejoin:round;-inkscape-stroke:none"
       d="m 171.43275,42.493795 c 12.88616,14.172699 21.19776,31.975043 23.60865,51.107135 2.9353,3.182635 4.75282,7.23151 4.76531,11.55868 a 2.5490962,2.5490962 0 0 0 0,0.001 2.5490962,2.5490962 0 0 0 0,9.9e-4 2.5490962,2.5490962 0 0 0 0,10e-4 2.5490962,2.5490962 0 0 0 0,9.9e-4 2.5490962,2.5490962 0 0 0 0,9.9e-4 2.5490962,2.5490962 0 0 0 0,0.001 2.5490962,2.5490962 0 0 0 0,9.9e-4 2.5490962,2.5490962 0 0 0 0,9.9e-4 2.5490962,2.5490962 0 0 0 0,0.001 2.5490962,2.5490962 0 0 0 0,9.9e-4 2.5490962,2.5490962 0 0 0 0,9.9e-4 2.5490962,2.5490962 0 0 0 0,10e-4 c -0.0149,4.16364 -1.70087,8.07592 -4.44428,11.21186 -2.32864,19.2787 -10.58481,37.29493 -23.56609,51.59062 6.05735,-0.60367 12.00787,-1.96298 17.64556,-4.31665 11.60361,-17.24881 17.89592,-37.60585 17.95756,-58.49617 -0.0645,-20.850529 -6.33479,-41.170677 -17.89954,-58.398176 -5.77311,-2.377617 -11.86973,-3.726147 -18.06717,-4.272796 z" /><path
       id="path13-0"
       style="color:#000000;fill:#ffd500;fill-opacity:1;stroke-width:2.49497;stroke-linecap:round;stroke-linejoin:round;-inkscape-stroke:none"
       d="M 41.94441,36.495875 C 56.117114,23.609705 73.919457,15.29812 93.051547,12.887225 96.234187,9.9519123 100.28306,8.1343982 104.61025,8.1219252 a 2.5490962,2.5490962 0 0 0 0.001,0 2.5490962,2.5490962 0 0 0 9.9e-4,0 2.5490962,2.5490962 0 0 0 9.9e-4,0 2.5490962,2.5490962 0 0 0 0.001,0 2.5490962,2.5490962 0 0 0 9.9e-4,0 2.5490962,2.5490962 0 0 0 0.001,0 2.5490962,2.5490962 0 0 0 9.9e-4,0 2.5490962,2.5490962 0 0 0 9.9e-4,0 2.5490962,2.5490962 0 0 0 0.001,0 2.5490962,2.5490962 0 0 0 9.9e-4,0 2.5490962,2.5490962 0 0 0 9.9e-4,0 2.5490962,2.5490962 0 0 0 0.001,0 c 4.16365,0.014969 8.07592,1.7008481 11.21185,4.4442718 19.27871,2.328635 37.29494,10.584805 51.59061,23.566085 -0.60366,-6.05735 -1.96296,-12.007864 -4.31663,-17.64556 C 145.86273,6.8831201 125.50569,0.59079313 104.61537,0.52916663 83.764828,0.59353383 63.44468,6.8639574 46.217179,18.428715 43.839568,24.201812 42.491033,30.298432 41.94441,36.495875 Z" /><path
       id="path13-0-2"
       style="color:#000000;fill:#ffd500;fill-opacity:1;stroke-width:2.49497;stroke-linecap:round;stroke-linejoin:round;-inkscape-stroke:none"
       d="M 37.955917,167.51543 C 25.069748,153.34273 16.758163,135.54039 14.347268,116.40829 11.411956,113.22565 9.5944403,109.17676 9.5819653,104.84958 a 2.5490962,2.5490962 0 0 0 0,-9.9e-4 2.5490962,2.5490962 0 0 0 0,-0.001 2.5490962,2.5490962 0 0 0 0,-9.9e-4 2.5490962,2.5490962 0 0 0 0,-9.9e-4 2.5490962,2.5490962 0 0 0 0,-10e-4 2.5490962,2.5490962 0 0 0 0,-9.9e-4 2.5490962,2.5490962 0 0 0 0,-9.9e-4 2.5490962,2.5490962 0 0 0 0,-0.001 2.5490962,2.5490962 0 0 0 0,-9.9e-4 2.5490962,2.5490962 0 0 0 0,-9.9e-4 2.5490962,2.5490962 0 0 0 0,-0.001 2.5490962,2.5490962 0 0 0 0,-9.9e-4 C 9.5969353,100.67289 11.282816,96.760621 14.02624,93.624682 16.354875,74.345988 24.611045,56.329748 37.592324,42.034069 31.534975,42.637727 25.584459,43.997049 19.946765,46.350703 8.3431605,63.599505 2.0508363,83.956556 1.9892094,104.84688 c 0.064364,20.85056 6.3347906,41.1707 17.8995486,58.39821 5.773097,2.37759 11.869717,3.72613 18.067159,4.27276 z" /><path
       id="path13-0-2-4"
       style="color:#000000;fill:#ffd500;fill-opacity:1;stroke-width:2.49497;stroke-linecap:round;stroke-linejoin:round;-inkscape-stroke:none"
       d="m 167.43333,173.17341 c -14.1727,12.88617 -31.97504,21.19775 -51.10714,23.60866 -3.18264,2.9353 -7.23153,4.75281 -11.5587,4.76528 a 2.5490962,2.5490962 0 0 0 -10e-4,0 2.5490962,2.5490962 0 0 0 -9.9e-4,0 2.5490962,2.5490962 0 0 0 -9.9e-4,0 2.5490962,2.5490962 0 0 0 -0.001,0 2.5490962,2.5490962 0 0 0 -9.9e-4,0 2.5490962,2.5490962 0 0 0 -9.9e-4,0 2.5490962,2.5490962 0 0 0 -10e-4,0 2.5490962,2.5490962 0 0 0 -9.9e-4,0 2.5490962,2.5490962 0 0 0 -9.9e-4,0 2.5490962,2.5490962 0 0 0 -0.001,0 2.5490962,2.5490962 0 0 0 -9.9e-4,0 2.5490962,2.5490962 0 0 0 -9.9e-4,0 c -4.16367,-0.0149 -8.075941,-1.70084 -11.211875,-4.44427 C 74.265,194.77445 56.248763,186.51828 41.953082,173.537 c 0.603658,6.05735 1.962971,12.00787 4.31663,17.64555 17.248808,11.60362 37.605856,17.89594 58.496188,17.95756 20.85055,-0.0643 41.17069,-6.3348 58.3982,-17.89955 2.37761,-5.7731 3.72614,-11.8697 4.27277,-18.06715 z" /><ellipse
       style="display:inline;fill:#ffd500;fill-opacity:1;stroke:none;stroke-width:4.22599;stroke-linecap:round;stroke-linejoin:round;stroke-dasharray:none;stroke-opacity:1;paint-order:normal"
       id="ellipse866-0"
       cx="104.70242"
       cy="185.85629"
       rx="12.707844"
       ry="12.382778" /><ellipse
       style="display:inline;fill:#ffd500;fill-opacity:1;stroke:none;stroke-width:4.22599;stroke-linecap:round;stroke-linejoin:round;stroke-dasharray:none;stroke-opacity:1;paint-order:normal"
       id="ellipse14"
       cx="25.822922"
       cy="104.89584"
       rx="12.707844"
       ry="12.382778" /><ellipse
       style="display:inline;fill:#ffd500;fill-opacity:1;stroke:none;stroke-width:4.22599;stroke-linecap:round;stroke-linejoin:round;stroke-dasharray:none;stroke-opacity:1;paint-order:normal"
       id="ellipse15"
       cx="104.70242"
       cy="24.113125"
       rx="12.707844"
       ry="12.382778" /><ellipse
       style="display:inline;fill:#ffd500;fill-opacity:1;stroke:none;stroke-width:4.22599;stroke-linecap:round;stroke-linejoin:round;stroke-dasharray:none;stroke-opacity:1;paint-order:normal"
       id="ellipse16"
       cx="183.5116"
       cy="104.77406"
       rx="12.707844"
       ry="12.382778" /></g><metadata
     id="metadata1"><rdf:RDF><cc:License
         rdf:about="http://creativecommons.org/licenses/by-nc/4.0/"><cc:permits
           rdf:resource="http://creativecommons.org/ns#Reproduction" /><cc:permits
           rdf:resource="http://creativecommons.org/ns#Distribution" /><cc:requires
           rdf:resource="http://creativecommons.org/ns#Notice" /><cc:requires
           rdf:resource="http://creativecommons.org/ns#Attribution" /><cc:prohibits
           rdf:resource="http://creativecommons.org/ns#CommercialUse" /><cc:permits
           rdf:resource="http://creativecommons.org/ns#DerivativeWorks" /></cc:License><cc:Work
         rdf:about=""><cc:license
           rdf:resource="http://creativecommons.org/licenses/by-nc/4.0/" /></cc:Work></rdf:RDF></metadata></svg>
